<svg width="910" height="240" xmlns="http://www.w3.org/2000/svg" version="1.1">
    <style>
        path { fill: #000000; }
        @media (prefers-color-scheme: dark) {
        path { fill: #ffffff; }
        }
    </style>
    <g>
        <title>Layer 1</title>
        <g id="g1">
            <path fill="currentColor" id="path1"
                d="m386.65158,214.83008c-3.71979,-0.83362 -7.25275,-2.6517 -9.90686,-5.09818l-1.29297,-1.19183l1.63596,-1.85187l1.63596,-1.85187l1.64511,1.52307c3.21866,2.97989 7.46326,4.43643 12.23123,4.1972c7.49374,-0.37601 10.80096,-4.27786 11.25726,-13.28133l0.18515,-3.65273l-1.56415,1.4063c-5.05997,4.54933 -12.62479,5.43767 -19.07898,2.24043c-5.23187,-2.59172 -8.31158,-7.40175 -8.71732,-13.61505c-0.45084,-6.9043 2.86392,-13.21458 8.4635,-16.11182c2.60052,-1.34552 3.68008,-1.68279 6.30557,-1.96983c4.74924,-0.51927 9.42896,0.8515 12.44736,3.64601c0.92865,0.85977 1.76913,1.56322 1.86777,1.56322c0.0986,0 0.17929,-1.04727 0.17929,-2.32727l0,-2.32727l2.47275,0l2.47272,0l-0.005,17.23637c-0.00601,19.06696 -0.04501,19.56775 -1.83551,23.3371c-1.7392,3.66125 -5.03519,6.43478 -9.21399,7.75345c-2.58267,0.81497 -8.35916,1.00912 -11.18478,0.37589l-0.00006,0zm10.95789,-21.4342c3.22556,-1.59415 5.25983,-4.10451 6.17542,-7.62064c1.21854,-4.67946 -0.22305,-9.70695 -3.67853,-12.82877c-0.64902,-0.58633 -2.04709,-1.47688 -3.10681,-1.97899c-1.79651,-0.8512 -2.14319,-0.91295 -5.1268,-0.91295c-2.9913,0 -3.32712,0.06021 -5.14929,0.92346c-2.43887,1.1554 -4.2453,2.94011 -5.418,5.35283c-3.52823,7.25902 0.10361,16.19598 7.33316,18.04491c0.49878,0.12756 2.22787,0.20313 3.84244,0.16792c2.73914,-0.05971 3.08234,-0.13655 5.12842,-1.14778zm273.34879,21.4751c-3.89398,-0.81534 -7.68903,-2.76654 -10.05713,-5.17084l-1.37787,-1.39886l1.64063,-1.64059l1.64056,-1.64056l1.55231,1.36716c2.95129,2.59918 7.29987,4.24908 11.19916,4.24908c8.31702,0 12.29987,-4.46002 12.31256,-13.78764l0.00397,-3.16946l-1.55133,1.46718c-2.93799,2.77861 -6.29724,3.98923 -10.95776,3.94894c-9.84937,-0.08508 -16.57318,-6.8511 -16.57318,-16.67719c0,-7.78537 4.34363,-13.9189 11.44598,-16.16254c5.66589,-1.78984 12.2146,-0.46559 16.21857,3.27965l1.41772,1.32614l0,-2.36708l0,-2.36708l2.61816,0l2.61823,0l-0.00604,16.50908c-0.00598,16.88104 -0.12158,19.07712 -1.17303,22.26431c-0.72003,2.18277 -2.76813,5.3035 -4.27563,6.51492c-1.58978,1.27756 -4.0481,2.59045 -5.89099,3.14606c-2.20441,0.66461 -8.27826,0.8385 -10.80542,0.30933l0.00055,0zm10.58881,-21.34151c2.25409,-1.1097 4.61517,-3.49554 5.59723,-5.65596c2.89606,-6.37122 0.30267,-13.80977 -5.875,-16.85103c-1.88269,-0.92685 -2.10834,-0.96794 -5.31769,-0.96794c-3.02734,0 -3.51251,0.07541 -5.01501,0.77966c-0.91486,0.42882 -2.29962,1.37474 -3.07721,2.10208c-5.83636,5.45924 -4.82343,16.21539 1.89801,20.15442c2.1814,1.27837 3.45856,1.55009 6.81818,1.45061c2.79492,-0.08281 3.28821,-0.18315 4.9715,-1.01184zm82.25299,-2.96582l0,-24.43637l2.47272,0l2.47272,0l0,2.38783l0,2.38785l1.23633,-1.19077c2.93219,-2.82402 6.62073,-4.22066 11.10535,-4.20496c3.21521,0.01129 5.51929,0.50117 7.85181,1.66953c3.92261,1.96486 6.60876,5.06441 8.12482,9.37524c0.80249,2.28183 0.88556,2.85156 0.87634,6.01163c-0.00903,2.97304 -0.12408,3.83617 -0.77771,5.81819c-1.44574,4.38374 -4.24341,7.67751 -8.15662,9.60301c-3.6828,1.8121 -7.3703,2.27209 -11.45337,1.42871c-2.84747,-0.58818 -5.29504,-1.83107 -7.25378,-3.68358l-1.55316,-1.4689l0,10.36946l0,10.36948l-2.47272,0l-2.47272,0l0,-24.43636zm21.89832,3.70366c3.1582,-1.44586 5.55341,-4.3625 6.50562,-7.92186c0.50323,-1.88106 0.49835,-5.69893 -0.01001,-7.60721c-0.9212,-3.45981 -3.36908,-6.43068 -6.51257,-7.90404c-1.50195,-0.70396 -1.98816,-0.77966 -5.00891,-0.77966c-3.02069,0 -3.5069,0.0757 -5.00885,0.77966c-4.39014,2.05766 -7.20929,6.63385 -7.20929,11.70255c0,5.73724 3.25763,10.43063 8.43634,12.15448c2.38885,0.79518 6.58588,0.59317 8.80743,-0.42392l0.00024,0zm-762.11656,5.12582c-4.35549,-0.92433 -8.35112,-3.62242 -10.6724,-7.20668c-3.59081,-5.54451 -3.55906,-13.88815 0.0735,-19.32802c1.51281,-2.26544 3.50834,-4.04601 5.9963,-5.35036c2.77021,-1.45232 5.18064,-2.01111 8.67528,-2.01111c5.4016,0 9.14473,1.4705 12.68231,4.98228c2.55298,2.53438 3.74126,4.7249 4.45772,8.21758c2.0584,10.03441 -3.63306,18.88792 -13.33534,20.74428c-2.77991,0.53189 -5.21497,0.51706 -7.87742,-0.048l0.00005,0.00003zm6.33099,-4.4529c4.86332,-0.79654 8.40165,-4.06686 9.6704,-8.93793c2.03255,-7.80348 -2.97823,-15.33694 -10.63046,-15.98239c-7.77649,-0.65591 -13.38055,4.51329 -13.44123,12.39827c-0.06499,8.44005 6.17854,13.86882 14.40129,12.52205zm96.65083,4.4731c-6.34166,-1.40871 -11.20108,-6.03532 -12.80876,-12.19514c-0.59944,-2.29675 -0.59566,-7.03848 0.007,-9.29906c1.27814,-4.79095 4.33038,-8.53337 8.62033,-10.56955c3.16832,-1.50381 4.71654,-1.85074 8.26366,-1.85178c10.32341,-0.00299 17.57999,7.04137 17.57999,17.06583c0,7.91151 -4.73318,14.33479 -12.20808,16.56726c-2.33342,0.6969 -6.96568,0.83527 -9.45454,0.28244l0.00041,0zm6.36716,-4.47897c4.81711,-0.78888 8.68108,-4.37485 9.76088,-9.05862c0.42064,-1.82457 0.36925,-5.09369 -0.10826,-6.88756c-1.36108,-5.11308 -5.52899,-8.57076 -10.82037,-8.9765c-6.83163,-0.52382 -12.36505,3.89612 -13.16469,10.51559c-1.11826,9.25714 5.4518,15.86142 14.33244,14.40709zm67.55486,4.48105c-3.27631,-0.73529 -5.573,-2.01465 -8.04276,-4.48021c-3.45624,-3.45036 -4.9209,-7.1297 -4.9295,-12.38316c-0.008,-4.8949 1.68854,-9.15965 4.91675,-12.3598c3.30789,-3.27913 6.80276,-4.67502 11.72937,-4.68483c7.36841,-0.01469 12.85849,3.96561 14.89896,10.8017c0.26266,0.87999 0.5567,2.94182 0.65338,4.58182l0.17584,2.98181l-13.57111,0c-15.51144,0 -14.01956,-0.3291 -13.02304,2.87276c1.09808,3.52814 3.26401,6.09128 6.38278,7.55331c1.48825,0.69765 1.98129,0.77393 5.00253,0.77393c3.19623,0 3.44098,-0.04399 5.28003,-0.94937c1.09381,-0.53848 2.69461,-1.68752 3.69864,-2.6548l1.77017,-1.70543l1.67706,1.30003c0.92239,0.71501 1.71805,1.33972 1.7681,1.38824c0.05008,0.04849 -0.68741,0.91998 -1.63876,1.93658c-1.99417,2.13091 -4.61917,3.79176 -7.32498,4.6346c-2.5658,0.79919 -6.82205,0.97662 -9.42346,0.39282zm13.95853,-20.85178c-0.28604,-1.82449 -1.68829,-4.62474 -2.94537,-5.88182c-0.60666,-0.60666 -1.83435,-1.44597 -2.72818,-1.86514c-1.44543,-0.67784 -1.97903,-0.76201 -4.82516,-0.76109c-2.93613,0.00095 -3.32678,0.06779 -4.7377,0.8102c-1.95746,1.03004 -3.56879,2.48666 -4.67068,4.22231c-0.89502,1.40979 -1.87613,4.23953 -1.57449,4.54118c0.0939,0.09389 5.00931,0.17075 10.9231,0.17075l10.75235,0l-0.19385,-1.23637zm44.88165,20.99753c-4.38672,-0.64444 -8.47229,-3.14511 -10.23581,-6.26501c-0.104,-0.18404 0.69055,-0.92368 1.85394,-1.72583l2.03598,-1.40378l0.48569,0.70764c2.84241,4.14128 9.5936,5.69562 13.49045,3.10591c1.39786,-0.92897 2.37161,-2.9292 2.20505,-4.52948c-0.24347,-2.33908 -1.87311,-3.3951 -7.67285,-4.97206c-6.9523,-1.89035 -9.44159,-3.56747 -10.56543,-7.11836c-0.51431,-1.62505 -0.23407,-4.9834 0.54224,-6.49791c1.81357,-3.53809 5.55798,-5.36882 10.95313,-5.35524c4.85718,0.01221 8.90598,1.96364 11.02972,5.31604l0.48685,0.76854l-1.91373,1.33778l-1.9137,1.33778l-1.66275,-1.69363c-1.93188,-1.96777 -3.5813,-2.66533 -6.29642,-2.66284c-2.46524,0.002 -3.8349,0.45354 -5.1774,1.7058c-1.41846,1.32314 -1.76779,3.07903 -0.95383,4.79437c0.60931,1.284 3.00745,2.55988 6.11032,3.25085c5.09482,1.13457 8.5621,2.71106 10.29672,4.68167c1.31384,1.49261 1.776,2.89841 1.776,5.40216c0,2.84355 -0.67432,4.44681 -2.74075,6.51627c-1.98337,1.98625 -3.81833,2.84395 -7.10007,3.31862c-2.20474,0.31891 -2.74545,0.31683 -5.03336,-0.01929zm33.78326,-0.14227c-4.82593,-1.04024 -8.85068,-4.17122 -11.02707,-8.57834c-4.08228,-8.26657 -1.62073,-18.03354 5.79071,-22.97653c4.33563,-2.89159 11.9823,-3.18311 16.69034,-0.63626c4.91367,2.65807 7.73108,7.78926 7.74173,14.09952l0.004,2.54546l-13.33331,0c-7.33334,0 -13.40707,0.0737 -13.49719,0.16385c-0.30145,0.30144 0.65482,3.69594 1.45572,5.16748c1.16623,2.14272 3.01935,3.89154 5.23669,4.94194c1.83188,0.8678 2.16074,0.92673 5.17136,0.92673c3.12161,0 3.27811,-0.03119 5.38184,-1.07465c1.36966,-0.67934 2.74518,-1.66269 3.73923,-2.67313l1.57248,-1.59846l1.70023,1.3083c0.93515,0.71957 1.70026,1.43788 1.70026,1.59625c0,0.15837 -0.89752,1.17308 -1.99448,2.25491c-4.15952,4.10214 -10.35464,5.82153 -16.33279,4.53293l0.00027,0zm14.03018,-19.78239c0.23419,-0.23418 -0.45169,-2.98759 -1.06256,-4.26569c-0.84567,-1.76926 -2.68994,-3.62636 -4.46887,-4.49992c-1.51563,-0.74428 -1.94482,-0.81635 -4.86237,-0.81635c-2.94736,0 -3.33023,0.06601 -4.84921,0.83568c-3.05652,1.54877 -5.78836,4.97488 -6.25385,7.84314l-0.17307,1.06665l10.7532,0c5.91428,0 10.82678,-0.07361 10.91672,-0.16351zm145.58444,19.76286c-8.38562,-1.79903 -13.37726,-8.68561 -12.92059,-17.82562c0.38922,-7.7907 5.01514,-13.64983 12.31464,-15.59763c2.08844,-0.5573 6.96368,-0.62 8.99133,-0.11566c3.10754,0.77295 6.16107,2.5741 7.46252,4.40182l0.63525,0.89212l-1.69983,1.50822l-1.69983,1.50822l-1.14142,-1.14142c-0.62775,-0.62778 -2.01215,-1.55396 -3.07629,-2.05815c-1.76099,-0.8343 -2.18341,-0.91524 -4.69855,-0.90021c-2.07257,0.01241 -3.13422,0.16476 -4.24554,0.60936c-4.76483,1.90616 -7.30206,5.57892 -7.60638,11.01048c-0.39496,7.04933 3.35303,12.14854 9.75531,13.27248c3.51434,0.61694 7.43146,-0.46147 10.16022,-2.7972l1.20959,-1.03535l1.54523,1.36388c0.84985,0.75014 1.58142,1.45114 1.62567,1.5578c0.04431,0.10666 -0.64191,0.87709 -1.52484,1.7121c-3.62164,3.42525 -9.48193,4.83714 -15.08649,3.63475zm75.02539,0.18494c-3.83484,-0.69514 -6.75781,-2.19284 -9.34045,-4.78586c-3.18658,-3.19937 -4.78186,-7.28104 -4.78186,-12.2348c0,-3.29205 0.57739,-5.76779 1.96045,-8.40636c3.17358,-6.05431 9.93744,-9.35097 17.61182,-8.58394c5.91156,0.59085 11.00378,3.91359 13.48645,8.80002c1.08759,2.14066 1.8418,5.49451 1.8418,8.19028c0,7.96001 -4.6972,14.3284 -12.2182,16.56528c-1.91528,0.56964 -6.56506,0.81702 -8.56,0.45538zm5.80396,-4.68304c3.14691,-0.58174 5.85266,-2.28195 7.5473,-4.74251c3.62946,-5.26979 2.6933,-13.52501 -1.96967,-17.36859c-6.05408,-4.99028 -15.54303,-3.2285 -18.95306,3.51895c-1.05682,2.09111 -1.4118,4.13669 -1.26105,7.26688c0.11475,2.38307 0.27716,3.13074 1.01929,4.69299c1.66028,3.49506 4.39233,5.72388 7.96674,6.49925c2.33246,0.50597 3.48615,0.53313 5.65045,0.13303zm57.4679,4.53976c-4.70374,-1.07056 -8.87567,-4.13358 -10.91437,-8.01318c-5.34113,-10.16426 -0.47711,-22.67107 9.89893,-25.45314c2.0592,-0.55212 6.65369,-0.61743 8.70557,-0.12375c6.94421,1.67081 11.46478,7.93474 11.48389,15.91269l0.005,2.1091l-13.52728,0c-15.46143,0 -13.97565,-0.32886 -12.97919,2.87276c1.09808,3.52814 3.26404,6.09128 6.38281,7.55331c1.48822,0.69765 1.98126,0.77393 5.0025,0.77393c3.20538,0 3.43683,-0.04199 5.30621,-0.96225c1.08496,-0.53415 2.74078,-1.71036 3.72162,-2.64371l1.76703,-1.68144l1.71106,1.31035c2.01752,1.54501 2.02533,1.50154 -0.72839,4.07745c-2.03485,1.90352 -4.21515,3.16327 -6.8382,3.95108c-2.28027,0.68488 -6.69684,0.84039 -8.99725,0.3168l0.00006,0zm13.94269,-20.32274c0,-1.26552 -1.15723,-4.05698 -2.3208,-5.59811c-1.729,-2.29001 -4.2019,-3.43304 -7.70789,-3.56279c-2.1424,-0.0793 -2.93396,0.01831 -4.29919,0.53023c-2.03735,0.76389 -4.2406,2.45796 -5.41315,4.16226c-0.90222,1.31131 -2.13721,4.52672 -1.89136,4.92444c0.07666,0.12415 4.97534,0.22571 10.88593,0.22571l10.74646,0l0,-0.68173zm26.61823,20.55153c-8.79138,-1.16602 -15.19037,-9.11974 -14.58154,-18.12434c0.32062,-4.74217 1.8111,-8.11732 4.94647,-11.20082c3.42767,-3.37102 7.24872,-4.84767 12.54413,-4.84767c4.82147,0 8.87616,1.44928 12.06287,4.31169c5.58685,5.01831 7.0611,13.78293 3.52026,20.92868c-3.14313,6.34302 -10.65558,9.97183 -18.49219,8.93246zm5.23633,-4.74046c3.73932,-0.6116 7.23804,-3.20898 8.73413,-6.48409c1.65295,-3.61833 1.5954,-8.3287 -0.1463,-11.97807c-3.36841,-7.05795 -13.54358,-8.75313 -19.43909,-3.23856c-5.0744,4.74649 -5.07361,13.92424 0.00195,18.67146c2.83942,2.65593 6.64166,3.71751 10.84979,3.02925l-0.00049,0zm96.54944,4.51039c-3.2868,-0.71498 -5.77905,-2.48039 -7.24963,-5.13535c-0.80353,-1.45074 -0.8634,-1.7709 -0.8634,-4.61348c0,-2.84325 0.05975,-3.16249 0.86432,-4.61504c1.04584,-1.88832 2.63348,-3.24028 5.1394,-4.37654c2.77045,-1.25615 5.89447,-1.80711 11.45081,-2.01944l4.94543,-0.18898l-0.07587,-1.43521c-0.16669,-3.15189 -1.28198,-5.08142 -3.67841,-6.36374c-1.03723,-0.55502 -1.6424,-0.63701 -4.68207,-0.63423c-3.14539,0.00299 -3.64929,0.0777 -5.09094,0.75598c-0.88,0.41405 -2.22296,1.2308 -2.98431,1.815c-0.76141,0.58421 -1.42371,1.06219 -1.4718,1.06219c-0.0481,0 -0.71637,-0.72847 -1.48505,-1.61882l-1.39758,-1.61884l0.67078,-0.71402c3.47784,-3.70198 12.19238,-5.40176 17.74896,-3.46194c1.98621,0.69339 4.19025,2.3577 5.34741,4.03787c1.9151,2.78059 1.96564,3.14645 2.19434,15.88484c0.1134,6.32001 0.30499,11.78545 0.42572,12.14545c0.21613,0.64479 0.18237,0.65456 -2.26245,0.65456l-2.48181,0l-0.20532,-2.19089l-0.20526,-2.19089l-1.5163,1.43405c-3.39746,3.21313 -8.22083,4.45688 -13.13696,3.38745zm5.95844,-4.23576c3.30817,-0.53679 5.62427,-2.16747 7.02789,-4.94809c0.81244,-1.60934 1.43933,-4.3492 1.44385,-6.31042l0.00201,-0.94545l-3.59827,0c-6.31366,0 -10.52344,1.10741 -12.68414,3.33669c-0.88263,0.91066 -1.01306,1.246 -1.11652,2.87117c-0.23853,3.74603 1.90704,5.72841 6.78076,6.26483c0.15997,0.01759 1.12488,-0.10332 2.14423,-0.26872l0.00018,0zm118.80139,4.34627c-6.27496,-1.04568 -11.35895,-5.86043 -13.02167,-12.33205c-0.58789,-2.28804 -0.58368,-7.05 0.008,-9.29906c1.15265,-4.37981 4.30072,-8.52435 7.9104,-10.41438c2.9198,-1.52878 4.92584,-2.01915 8.185,-2.00078c4.94397,0.02791 8.42645,1.42819 11.36572,4.57031c2.74683,2.93639 3.92523,5.98636 4.28381,11.08765l0.19055,2.7108l-13.60773,0l-13.60809,0l0.14917,1.23636c0.44409,3.6817 3.06415,7.28949 6.53436,8.99788c1.58893,0.78224 2.31592,0.95534 4.43835,1.05681c4.19244,0.20045 6.54938,-0.71021 9.76404,-3.77261l1.7558,-1.67256l1.66241,1.31882c0.91431,0.72534 1.66241,1.45618 1.66241,1.62405c0,0.16788 -0.89996,1.1893 -1.99994,2.26984c-4.01001,3.93907 -9.69623,5.61487 -15.67261,4.61893zm13.46442,-20.81718c-0.66113,-3.52408 -2.75842,-6.45674 -5.62384,-7.86385c-1.51166,-0.74236 -1.94293,-0.81467 -4.85895,-0.81467c-3.08435,0 -3.2655,0.0356 -5.01434,0.98398c-3.00549,1.62991 -5.46716,4.80553 -6.07294,7.83424l-0.18542,0.92725l10.97784,0l10.97784,0l-0.2002,-1.06696zm-770.11412,20.55659c-1.89012,-0.3954 -3.14474,-1.09848 -4.41035,-2.4715c-1.97804,-2.14594 -2.06737,-2.80188 -2.06737,-15.18004l0,-10.85629l-3.34546,0l-3.34546,0l0,-2.32727l0,-2.32727l3.34546,0l3.34546,0l0,-4.50909l0,-4.50909l2.47272,0l2.47273,0l0,4.50909l0,4.50909l4.65454,0l4.65454,0l0,2.32727l0,2.32727l-4.67114,0l-4.67113,0l0.08929,10.54546c0.09689,11.44266 0.12057,11.61592 1.74998,12.82162c1.16173,0.85965 3.4944,0.96764 5.5173,0.25543l1.6507,-0.58116l0.20372,2.174c0.11206,1.19569 0.0892,2.27724 -0.05069,2.40341c-0.78349,0.70648 -5.7106,1.28326 -7.59486,0.88907l0.00002,0zm-47.20898,-16.07146c-0.002,-8.68001 -0.08289,-16.07637 -0.17937,-16.43637c-0.17186,-0.64125 -0.12515,-0.65454 2.30011,-0.65454c2.84764,0 2.82869,-0.0177 2.82869,2.64198c0,0.9469 0.0739,1.72165 0.16423,1.72165c0.0903,0 0.4859,-0.38226 0.87904,-0.84949c0.39314,-0.46722 1.31999,-1.25035 2.05968,-1.74031c6.59013,-4.36511 15.74205,-2.6918 18.85283,3.44702c1.47374,2.90826 1.59891,4.18683 1.60356,16.37914l0.004,11.27274l-2.47272,0l-2.47273,0l-0.005,-10.25455c-0.006,-12.62282 -0.28497,-14.42708 -2.58415,-16.72626c-1.53079,-1.53079 -2.79407,-1.96512 -5.70171,-1.96034c-2.05022,0.00299 -2.91158,0.13899 -3.97067,0.62521c-2.87898,1.32169 -5.14502,4.67923 -5.75977,8.53412c-0.16583,1.03999 -0.30252,5.91635 -0.30373,10.83635l-0.00201,8.94547l-2.61818,0l-2.61818,0l-0.00392,-15.78181zm111.02406,15.55286c-0.2977,-0.48169 -13.27463,-32.14143 -13.27463,-32.38605c0,-0.14174 1.23328,-0.25772 2.7406,-0.25772l2.7406,0l3.18439,8.07272c1.7514,4.44 4.07178,10.32684 5.15634,13.08188c1.08456,2.75504 2.06256,4.95314 2.17334,4.88469c0.11078,-0.06851 2.47156,-5.95532 5.24622,-13.08188l5.04483,-12.95741l2.74249,0c2.0752,0 2.70825,0.0885 2.60168,0.36363c-0.07739,0.2 -3.06763,7.59636 -6.64484,16.43637l-6.50403,16.07272l-2.53275,0c-1.39301,0 -2.59641,-0.10303 -2.67426,-0.22896zm63.52216,-15.1165c-0.00198,-8.44 -0.08429,-15.83636 -0.1835,-16.43636l-0.18033,-1.09091l2.47443,0l2.47443,0l0.18182,0.90909c0.10001,0.5 0.18182,1.41637 0.18182,2.03636c0,0.62001 0.06271,1.12727 0.13947,1.12727c0.07669,0 0.68246,-0.5891 1.34616,-1.30911c1.55353,-1.68539 4.18951,-2.97098 6.80527,-3.319c1.76785,-0.2352 4.56381,-0.06871 4.92587,0.29337c0.06619,0.0661 -0.017,1.19527 -0.18469,2.50916c-0.29004,2.27197 -0.33383,2.37341 -0.89502,2.07309c-0.87009,-0.46565 -5.09747,-0.16527 -6.26352,0.44507c-1.54965,0.81114 -3.24661,2.50952 -4.00729,4.01068c-1.40002,2.7628 -1.56641,4.30574 -1.57104,14.56949l-0.004,9.52727l-2.61819,0l-2.61816,0l-0.00351,-15.34546zm114.6214,-10.83636l0,-26.18182l2.47031,0l2.47034,0l0.0751,16.49565l0.0751,16.49565l7.20325,-6.7502l7.20328,-6.75018l3.70023,0l3.70023,0l-0.86713,0.83531c-0.47693,0.45944 -4.27075,3.81947 -8.43076,7.46677c-4.16,3.64729 -7.59875,6.71487 -7.64163,6.81685c-0.06561,0.15605 13.7009,13.26164 17.4902,16.65048l1.20596,1.07851l-3.78842,0.01241l-3.78839,0.01239l-8.06613,-7.87881l-8.06613,-7.87881l0,7.87881l0,7.87881l-2.47275,0l-2.47272,0l0.00006,-26.18181zm132.65457,0l0,-26.18182l2.61816,0l2.61816,0l0,11.82164l0,11.82162l1.40881,-1.31778c2.94843,-2.75787 6.75604,-3.89474 11.33929,-3.38564c4.6944,0.52142 8.00464,3.16896 9.74353,7.79292c0.58057,1.54381 0.61871,2.27151 0.71478,13.63087l0.10144,12l-2.4903,0l-2.4903,0l-0.00897,-9.52727c-0.005,-5.24001 -0.13324,-10.48438 -0.28516,-11.65416c-0.46936,-3.61446 -1.77124,-5.81837 -4.21497,-7.13533c-0.95874,-0.51669 -1.65015,-0.62698 -3.92725,-0.6265c-2.43146,0.00052 -2.94073,0.0939 -4.23663,0.7766c-1.66229,0.8757 -3.30505,2.5583 -4.18854,4.29013c-1.32813,2.60327 -1.46576,3.93622 -1.46576,14.19218l0,9.68433l-2.61816,0l-2.61823,0l0.00006,-26.18181zm81.74542,13.71872c0,-6.85469 -0.08569,-14.25105 -0.19055,-16.43636l-0.19055,-3.97327l2.51782,0l2.51782,0l0,2.03636c0,1.12 0.06201,2.03636 0.13782,2.03636c0.07581,0 0.73682,-0.59898 1.46887,-1.33109c2.26007,-2.26004 6.77087,-3.86162 9.62756,-3.41829c2.35016,0.36472 2.22192,0.22322 2.00836,2.21628c-0.31158,2.90738 -0.15723,2.75494 -2.62872,2.59633c-3.69598,-0.23718 -6.12482,0.85397 -8.01447,3.60046c-1.97583,2.87177 -2.11127,3.77914 -2.24225,15.02722l-0.11768,10.10909l-2.44702,0l-2.44702,0l0,-12.4631zm146.61823,-2.18513c0,-8.05653 -0.08411,-15.4529 -0.18689,-16.43636l-0.18689,-1.78813l2.49652,0l2.49658,0l0.20123,2.04245l0.20129,2.04243l1.56104,-1.47636c1.91351,-1.80977 3.9939,-2.79625 6.66205,-3.15909c1.75653,-0.23886 4.6355,-0.0696 4.87738,0.28668c0.04419,0.06511 -0.03448,1.18744 -0.17493,2.49399l-0.25531,2.37556l-0.86981,-0.30321c-1.31427,-0.45816 -4.84015,-0.13348 -6.21716,0.57248c-1.50024,0.76918 -3.49854,2.9313 -4.18134,4.52414c-1.04468,2.43713 -1.18744,4.10652 -1.18744,13.88797l0,9.58568l-2.61816,0l-2.61816,0l0,-14.64824zm102.69092,-11.53358l0,-26.18182l2.61816,0l2.61816,0l0,11.80879l0,11.80876l1.51208,-1.35948c3.04095,-2.73407 6.73193,-3.82562 11.23022,-3.32115c5.12836,0.57512 8.88416,3.93365 10.08209,9.01556c0.35229,1.49464 0.44061,4.1077 0.44403,13.13843l0.00403,11.27274l-2.47272,0l-2.47278,0l0,-9.76247c0,-12.49628 -0.32922,-14.68063 -2.57745,-17.10054c-1.50067,-1.61526 -2.81207,-2.0809 -5.85889,-2.08025c-2.44086,0.00052 -2.93817,0.0925 -4.2583,0.78757c-2.46198,1.29628 -4.57562,4.2872 -5.3241,7.53366c-0.16608,0.72047 -0.29736,5.49016 -0.30139,10.9493l-0.00702,9.67273l-2.61816,0l-2.61816,0l0.00018,-26.18182zm78.83636,11.97116c0,-7.81584 -0.08472,-15.21222 -0.18817,-16.43636l-0.18811,-2.22571l2.48584,0l2.4859,0l0.20581,2.04939l0.20581,2.04941l1.56842,-1.48332c1.88696,-1.78459 3.98431,-2.7975 6.54291,-3.15984c2.04584,-0.28973 4.53625,-0.12885 4.8078,0.31058c0.09204,0.14899 0.07605,1.2986 -0.03497,2.55469l-0.20209,2.2838l-0.86847,-0.30272c-1.30994,-0.45667 -4.84003,-0.13284 -6.2027,0.56897c-1.46106,0.75247 -3.23334,2.50819 -3.95715,3.92017c-1.2851,2.50677 -1.42468,3.90302 -1.42468,14.25182l0,9.82979l-2.61816,0l-2.61816,0l0.00018,-14.21066zm-567.27277,-3.09842l0,-2.18182l7.85455,0l7.85455,0l0,2.18182l0,2.18182l-7.85455,0l-7.85455,0l0,-2.18182zm98.90912,0l0,-2.18182l7.85455,0l7.85449,0l0,2.18182l0,2.18182l-7.85449,0l-7.85455,0l0,-2.18182zm-361.89095,-42.64833c-20.34695,-1.88055 -37.41975,-13.41835 -46.03434,-31.11002c-4.02627,-8.26871 -5.77592,-16.13733 -5.78652,-26.02347c-0.01089,-10.13304 1.59964,-17.6552 5.54328,-25.89091c2.90984,-6.07681 5.64645,-10.06446 10.05698,-14.65457c9.08701,-9.457 20.96301,-15.23182 34.75842,-16.9016c3.63773,-0.44032 11.69693,-0.36343 15.62909,0.14909c26.26857,3.42391 45.72206,22.71575 49.07794,48.67013c0.58675,4.53792 0.59764,12.06697 0.0239,16.54024c-1.88744,14.7162 -8.92513,27.63669 -19.96858,36.66023c-6.13275,5.01103 -14.9175,9.30278 -22.79111,11.13452c-5.96849,1.38852 -14.4993,1.98181 -20.50908,1.42636l0.00002,0zm10.32727,-10.75301c19.43864,-1.69511 34.47308,-14.39403 39.412,-33.28957c1.3721,-5.24947 1.5993,-7.15053 1.5993,-13.38182c0,-6.1996 -0.21968,-8.05287 -1.58691,-13.38769c-4.29387,-16.75426 -16.86888,-28.75077 -34.04257,-32.47645c-2.67638,-0.58061 -3.88293,-0.6633 -9.74547,-0.66788c-5.25043,-0.0041 -7.25456,0.10604 -9.30908,0.51159c-4.32199,0.85314 -8.13029,2.16472 -12.02357,4.14093c-8.17825,4.15124 -14.48425,10.4033 -18.62055,18.4613c-3.91531,7.62747 -5.56339,14.56482 -5.56339,23.4182c0,10.52098 2.55731,19.25311 8.13622,27.78181c2.29391,3.50674 7.8688,9.11494 11.34404,11.41176c9.13756,6.03908 19.02065,8.47014 30.39999,7.47781zm322.32726,10.87538c-14.72946,-0.94986 -28.45038,-7.15594 -37.9946,-17.18529c-10.71448,-11.25908 -16.2334,-26.38376 -15.57693,-42.68877c0.58554,-14.54289 5.47519,-26.77945 14.89874,-37.2848c6.74728,-7.52181 17.7955,-13.83817 28.63644,-16.37169c5.87183,-1.37225 15.53671,-1.89843 21.53491,-1.17241c11.99277,1.4516 23.14001,6.29393 31.76672,13.79938c7.91895,6.88972 14.26575,17.37755 16.90723,27.93861c5.10272,20.40166 -0.13116,41.67027 -13.72699,55.7812c-11.57898,12.01775 -28.64481,18.3317 -46.44553,17.18376zm13.09091,-11.44374c13.91528,-2.36172 25.97076,-11.59926 31.98865,-24.51131c6.26031,-13.43224 6.26208,-29.88054 0.005,-43.19106c-5.90192,-12.55415 -17.01367,-21.23431 -31.07745,-24.27678c-2.54166,-0.54985 -3.88229,-0.64077 -9.64297,-0.65399c-5.84995,-0.01343 -7.10147,0.06786 -9.95718,0.64673c-7.23264,1.46611 -13.06018,4.13963 -18.84662,8.64631c-7.79172,6.06847 -13.67749,15.95454 -15.85226,26.62626c-3.17154,15.56305 0.79083,31.63072 10.54605,42.76488c6.04312,6.8974 14.78174,11.92935 23.93982,13.78531c5.54495,1.12373 12.86703,1.18713 18.89746,0.16364l-0.00049,0.00002zm369.85681,11.35777c-7.99011,-0.77489 -15.01318,-3.43289 -21.13623,-7.99936c-2.63959,-1.96855 -7.31909,-6.5276 -8.41174,-8.19525c-0.55896,-0.85306 -0.97406,-0.37671 4.09296,-4.69728l3.74719,-3.19521l2.77917,2.89554c3.5423,3.69054 6.71082,6.08113 10.38098,7.83214c4.80359,2.29181 6.90009,2.72119 13.23633,2.71089c6.3963,-0.01039 8.25336,-0.40779 13.09094,-2.80142c2.59705,-1.28503 3.42749,-1.88376 5.54449,-3.9975c4.04846,-4.04214 5.59674,-7.73134 5.62164,-13.39517c0.02051,-4.66937 -0.8504,-7.41541 -3.40717,-10.74298c-3.11804,-4.05797 -8.47217,-7.01537 -19.54083,-10.79346c-17.08716,-5.83244 -21.89899,-8.22711 -26.63562,-13.25554c-3.04327,-3.23077 -4.80634,-6.24836 -5.9436,-10.17278c-1.95557,-6.74836 -1.34467,-15.51563 1.47107,-21.11108c4.56647,-9.07454 12.41443,-14.72247 23.86121,-17.17213c2.79395,-0.59793 3.95844,-0.67916 9.71973,-0.6781c5.15778,0.00095 7.06964,0.11117 9.01819,0.5199c8.19415,1.71883 14.56354,5.14783 19.95953,10.74531c1.36481,1.41577 2.43951,2.68046 2.38824,2.81042c-0.05133,0.12996 -1.94537,1.87886 -4.20898,3.88643l-4.11578,3.65014l-3.16785,-3.09762c-5.46442,-5.34316 -10.31256,-7.57343 -17.71997,-8.15154c-11.35547,-0.88625 -20.60815,3.50859 -24.8147,11.78651c-1.16425,2.29115 -1.7655,4.95041 -1.77075,7.83217c-0.00903,4.92452 1.18567,8.19822 4.14734,11.36424c3.82806,4.09219 7.1662,5.81324 19.12109,9.85833c14.7193,4.98047 19.52985,7.13504 24.10681,10.79704c5.37848,4.3033 8.55084,10.15221 9.36719,17.27017c0.39331,3.42886 0.21625,7.87161 -0.43579,10.93645c-2.07043,9.73198 -9.03009,17.73584 -18.85693,21.68622c-5.85059,2.35191 -14.6875,3.53406 -21.48816,2.87451zm-630.36589,-57.31535l0,-54.69091l6.76364,0.0096l6.76364,0.0096l32.58183,45.3876l32.58182,45.38759l0.07358,-45.39722l0.07361,-45.39719l5.96274,0l5.96271,0l0,54.69091l0,54.6909l-6.6604,0l-6.6604,0l-32.68506,-45.80373c-17.97678,-25.19205 -32.78322,-45.81023 -32.90323,-45.81818c-0.12,-0.008 -0.21817,20.60373 -0.21817,45.80373l0,45.81818l-5.81819,0l-5.81818,0l0.00006,-54.69087zm141.38182,5.23637l0,-49.45455l-18.18182,0l-18.18179,0l0,-5.23637l0,-5.23637l42.32727,0l42.32727,0l0,5.23636l0,5.23637l-18.18182,0l-18.18182,0l0,49.45455l0,49.45453l-5.96362,0l-5.96362,0l-0.00003,-49.45453zm194.32727,-4.98172c-11.59998,-29.93736 -21.13452,-54.5472 -21.18787,-54.68855c-0.05432,-0.14389 2.7196,-0.25701 6.30231,-0.25701l6.39923,0l0.992,2.54546c0.54565,1.4 8.57031,22.34464 17.83264,46.54363c9.26233,24.19901 16.93079,43.83536 17.04095,43.63637c0.11017,-0.19899 7.75189,-20.12909 16.98163,-44.28909c9.2298,-24.16 17.17206,-44.94183 17.6496,-46.18182l0.86816,-2.25455l6.33148,0l6.33148,0l-21.26172,54.68848l-21.26172,54.68848l-5.96362,0.00006l-5.96362,0.00009l-21.09094,-54.43155zm88.14551,-0.25465l0,-54.69091l34.61816,0l34.61816,0l0,5.23636l0,5.23637l-28.79999,0l-28.79999,0l0,18.32726l0,18.32727l26.90906,0l26.90912,0l0,5.38182l0,5.38182l-26.90912,0l-26.90906,0l0,20.36365l0,20.36363l29.81818,0l29.81818,0l0,5.38181l0,5.38182l-35.63635,0l-35.63641,0l0.00006,-54.6909zm90.76361,-0.0159l0,-54.70672l20.87274,0.11337c19.98834,0.10856 21.01447,0.1403 24.21814,0.749c8.3067,1.57827 13.88782,4.27977 18.19855,8.80885c3.21332,3.37611 5.13824,6.88826 6.30798,11.50919c0.55835,2.20583 0.64612,3.30568 0.63361,7.94221c-0.01337,4.99389 -0.07098,5.56628 -0.7981,7.94083c-3.10138,10.12734 -10.5791,16.74207 -22.01477,19.47398c-2,0.4778 -3.85083,0.95219 -4.11298,1.05423c-0.38397,0.14946 2.60455,5.13336 15.37476,25.64006c8.71832,14 15.91864,25.62054 16.00073,25.82343c0.11859,0.29315 -1.30518,0.35287 -6.93433,0.29091l-7.08362,-0.078l-15.42224,-25.37503l-15.4223,-25.37505l-9.09088,-0.007l-9.09094,-0.007l0,25.45456l0,25.45454l-5.81818,0l-5.81818,0l0,-54.70634zm40.29089,-7.34775c4.02234,-0.74123 6.02374,-1.35732 8.87274,-2.73125c4.82867,-2.32867 8.03284,-6.22684 9.03839,-10.99603c0.51361,-2.43589 0.45502,-7.17662 -0.11584,-9.37445c-1.52313,-5.86383 -5.79584,-9.97862 -12.5589,-12.09477c-4.97351,-1.55618 -7.61627,-1.77918 -21.23639,-1.79186l-12.50909,-0.01165l-0.07538,18.47273c-0.0415,10.16 -0.00702,18.65046 0.07556,18.8677c0.22101,0.57797 25.13977,0.28043 28.50891,-0.34042zm138.32727,7.36363l0,-54.6909l34.61823,0l34.61816,0l0,5.23636l0,5.23637l-28.79999,0l-28.80005,0l0,18.32726l0,18.32727l26.90912,0l26.90912,0l0,5.38182l0,5.38182l-26.90912,0l-26.90912,0l0,20.36365l0,20.36363l29.67273,0l29.67273,0l0,5.38181l0,5.38182l-35.49091,0l-35.49091,0l0,-54.69092z" />
        </g>
    </g>
</svg>